<svg xmlns="http://www.w3.org/2000/svg" xmlns:xlink="http://www.w3.org/1999/xlink" width="70" height="70" viewBox="0 0 70 70">
  <defs>
    <clipPath id="clip-path">
      <rect id="Rectangle_1295" data-name="Rectangle 1295" width="70" height="70" rx="6" transform="translate(718 2567)" fill="#737373"/>
    </clipPath>
  </defs>
  <g id="Mask_Group_30" data-name="Mask Group 30" transform="translate(-718 -2567)" clip-path="url(#clip-path)">
    <g id="architect" transform="translate(718 2567)">
      <g id="Group_7112" data-name="Group 7112">
        <path id="Path_4747" data-name="Path 4747" d="M47.457,15.859V8.953A5.662,5.662,0,0,0,41.795,3.29H28.205a5.662,5.662,0,0,0-5.662,5.662v6.907Z" fill="#eaa96a"/>
        <path id="Path_4748" data-name="Path 4748" d="M37.831,15.859H32.169V2.119a1.094,1.094,0,0,1,1.094-1.094h3.475a1.094,1.094,0,0,1,1.094,1.094Z" fill="#efd27c"/>
        <path id="Path_4749" data-name="Path 4749" d="M41.795,3.29H38.65a5.662,5.662,0,0,1,5.662,5.662v6.907h3.145V8.953A5.662,5.662,0,0,0,41.795,3.29Z" fill="#e5935d"/>
        <path id="Path_4750" data-name="Path 4750" d="M23.675,28.205H21.41a2.265,2.265,0,0,1-2.265-2.265V21.41a2.265,2.265,0,0,1,2.265-2.265H48.59a2.265,2.265,0,0,1,2.265,2.265v4.53a2.265,2.265,0,0,1-2.265,2.265H23.675Z" fill="#ebb39a"/>
        <path id="Path_4751" data-name="Path 4751" d="M28.2,35V50.855h13.59V35Z" fill="#ebb39a"/>
        <path id="Path_4752" data-name="Path 4752" d="M23.675,18.12V28.205a11.325,11.325,0,1,0,22.649,0V18.12Z" fill="#f4dabd"/>
        <path id="Path_4753" data-name="Path 4753" d="M50.855,16.88a2.265,2.265,0,0,0-2.265-2.265H21.41a2.265,2.265,0,0,0-2.265,2.265v1.132a1.132,1.132,0,0,0,1.132,1.132H49.722a1.132,1.132,0,0,0,1.132-1.132V16.88Z" fill="#efd27c"/>
        <path id="Path_4754" data-name="Path 4754" d="M48.59,14.615H45.445A2.265,2.265,0,0,1,47.71,16.88v1.132a1.132,1.132,0,0,1-1.132,1.132h3.145a1.132,1.132,0,0,0,1.132-1.132V16.88A2.265,2.265,0,0,0,48.59,14.615Z" fill="#eabc73"/>
        <path id="Path_4755" data-name="Path 4755" d="M7.82,44.06a4.53,4.53,0,0,1,4.53-4.53h5.662a1.132,1.132,0,0,1,1.132,1.132v4.081H7.82Z" fill="#8cbdf9"/>
        <path id="Path_4756" data-name="Path 4756" d="M50.855,44.744V40.662a1.132,1.132,0,0,1,1.132-1.132H57.65a4.53,4.53,0,0,1,4.53,4.53v.684Z" fill="#8cbdf9"/>
        <path id="Path_4757" data-name="Path 4757" d="M57.65,39.53H54.505a4.53,4.53,0,0,1,4.53,4.53v.684H62.18V44.06A4.53,4.53,0,0,0,57.65,39.53Z" fill="#73a2da"/>
        <path id="Path_4758" data-name="Path 4758" d="M7.82,44.06H62.18V68.975H7.82Z" fill="#a6ccfb"/>
        <path id="Path_4759" data-name="Path 4759" d="M59.035,44.06H62.18V68.975H59.035Z" fill="#8cbdf9"/>
        <g id="Group_7110" data-name="Group 7110">
          <path id="Path_4760" data-name="Path 4760" d="M64.6,55.385H62.1a2.187,2.187,0,0,0-2.187,2.188V67.881a1.094,1.094,0,0,0,1.094,1.094h5.779a2.188,2.188,0,0,0,2.188-2.187V59.76A4.375,4.375,0,0,0,64.6,55.385Z" fill="#f4dabd"/>
          <path id="Path_4761" data-name="Path 4761" d="M64.6,55.385H62.1a2.2,2.2,0,0,0-.265.018A4.375,4.375,0,0,1,65.83,59.76v7.027a2.187,2.187,0,0,1-2.187,2.188h3.145a2.187,2.187,0,0,0,2.188-2.187V59.76A4.375,4.375,0,0,0,64.6,55.385Z" fill="#ebb39a"/>
        </g>
        <g id="Group_7111" data-name="Group 7111">
          <path id="Path_4762" data-name="Path 4762" d="M5.4,55.385H7.9a2.187,2.187,0,0,1,2.187,2.188V67.881a1.094,1.094,0,0,1-1.094,1.094H3.213a2.188,2.188,0,0,1-2.187-2.187V59.76A4.375,4.375,0,0,1,5.4,55.385Z" fill="#f4dabd"/>
        </g>
      </g>
      <g id="Group_7113" data-name="Group 7113">
        <path id="Path_4763" data-name="Path 4763" d="M35,31.5a3.3,3.3,0,0,0,2.848-1.644,1.025,1.025,0,0,0-1.774-1.028,1.239,1.239,0,0,1-2.148,0,1.025,1.025,0,0,0-1.774,1.028A3.3,3.3,0,0,0,35,31.5Z" fill="#131213"/>
        <path id="Path_4764" data-name="Path 4764" d="M30.47,25.833A1.025,1.025,0,0,0,31.5,24.808V23.675a1.025,1.025,0,1,0-2.051,0v1.132A1.025,1.025,0,0,0,30.47,25.833Z" fill="#131213"/>
        <path id="Path_4765" data-name="Path 4765" d="M39.53,25.833a1.025,1.025,0,0,0,1.025-1.025V23.675a1.025,1.025,0,0,0-2.051,0v1.132A1.025,1.025,0,0,0,39.53,25.833Z" fill="#131213"/>
        <path id="Path_4766" data-name="Path 4766" d="M64.6,54.359H63.205V44.06h0A5.562,5.562,0,0,0,57.65,38.5H51.987a2.16,2.16,0,0,0-2.158,2.158v2.372H48.376a1.025,1.025,0,0,0,0,2.051H61.154V54.5a3.219,3.219,0,0,0-2.265,3.07V67.881c0,.023,0,.045,0,.068H21.2A1.025,1.025,0,0,0,21.2,70H66.787A3.217,3.217,0,0,0,70,66.787V59.76a5.406,5.406,0,0,0-5.4-5.4ZM51.88,40.662a.107.107,0,0,1,.107-.107H57.65A3.511,3.511,0,0,1,61,43.034H51.88ZM67.949,66.787a1.163,1.163,0,0,1-1.162,1.162H61.009a.068.068,0,0,1-.068-.068V65.47h3.5a1.025,1.025,0,0,0,0-2.051h-3.5V60.94h3.5a1.025,1.025,0,0,0,0-2.051h-3.5V57.572A1.163,1.163,0,0,1,62.1,56.41h2.5a3.353,3.353,0,0,1,3.35,3.35Z" fill="#131213"/>
        <path id="Path_4767" data-name="Path 4767" d="M44.275,45.085a1.025,1.025,0,0,0,0-2.051H42.82V37.757a12.339,12.339,0,0,0,4.487-8.527H48.59a3.294,3.294,0,0,0,3.29-3.29V21.41a3.271,3.271,0,0,0-.607-1.9,2.149,2.149,0,0,0,.607-1.5V16.88a3.294,3.294,0,0,0-3.29-3.29h-.107V8.953a6.7,6.7,0,0,0-6.688-6.688H38.856V2.119A2.121,2.121,0,0,0,36.737,0H33.262a2.121,2.121,0,0,0-2.119,2.119v.146H28.2a6.7,6.7,0,0,0-6.688,6.688V13.59H21.41a3.294,3.294,0,0,0-3.29,3.29v1.132a2.149,2.149,0,0,0,.607,1.5,3.272,3.272,0,0,0-.607,1.9v4.53a3.294,3.294,0,0,0,3.29,3.29h1.283a12.339,12.339,0,0,0,4.487,8.526v5.278H20.171V40.662A2.16,2.16,0,0,0,18.013,38.5H12.35a5.562,5.562,0,0,0-5.555,5.555h0v10.3H5.4A5.407,5.407,0,0,0,0,59.76v7.027A3.217,3.217,0,0,0,3.213,70H17.094a1.025,1.025,0,0,0,0-2.051H11.107c0-.023,0-.045,0-.068V57.572A3.218,3.218,0,0,0,8.846,54.5V45.085ZM49.829,25.94a1.241,1.241,0,0,1-1.24,1.239H47.35V20.17h1.242a1.241,1.241,0,0,1,1.237,1.239v4.53ZM41.795,4.316a4.642,4.642,0,0,1,4.637,4.637V13.59H43.953V12.35a1.025,1.025,0,0,0-2.051,0V13.59H38.857V4.316Zm-8.6-2.2a.068.068,0,0,1,.068-.068h3.475a.068.068,0,0,1,.068.068V13.59H33.194ZM23.568,8.953a4.642,4.642,0,0,1,4.637-4.637h2.938V13.59H28.1V12.35a1.025,1.025,0,1,0-2.051,0V13.59H23.568Zm-3.4,7.928a1.241,1.241,0,0,1,1.239-1.239H48.59a1.241,1.241,0,0,1,1.24,1.239v1.132a.107.107,0,0,1-.107.107H20.278a.107.107,0,0,1-.107-.107Zm0,9.06V21.41a1.241,1.241,0,0,1,1.239-1.239h1.24V27.18H21.41a1.241,1.241,0,0,1-1.239-1.24Zm4.53,2.266V20.171H45.3v8.035a10.3,10.3,0,0,1-20.6,0Zm4.53,10.917a12.329,12.329,0,0,0,11.539,0v3.912H29.23V39.122ZM12.35,40.555h5.663a.107.107,0,0,1,.107.107v2.372H9a3.511,3.511,0,0,1,3.351-2.479ZM9.06,58.889h-3.5a1.025,1.025,0,0,0,0,2.051h3.5v2.479h-3.5a1.025,1.025,0,0,0,0,2.051h3.5v2.411a.068.068,0,0,1-.068.068H3.213a1.163,1.163,0,0,1-1.162-1.162V59.76A3.353,3.353,0,0,1,5.4,56.41H7.9A1.163,1.163,0,0,1,9.06,57.572Z" fill="#131213"/>
      </g>
    </g>
  </g>
</svg>
