<svg xmlns="http://www.w3.org/2000/svg" xmlns:xlink="http://www.w3.org/1999/xlink" width="70" height="70" viewBox="0 0 70 70">
  <defs>
    <clipPath id="clip-path">
      <rect id="Rectangle_1295" data-name="Rectangle 1295" width="70" height="70" transform="translate(303 2567)" fill="#737373"/>
    </clipPath>
  </defs>
  <g id="Mask_Group_31" data-name="Mask Group 31" transform="translate(-303 -2567)" clip-path="url(#clip-path)">
    <g id="seo" transform="translate(303 2567)">
      <path id="Path_4768" data-name="Path 4768" d="M51.686,64.871,45.128,51.756H24.872L18.314,64.871Z" fill="#b3b3b3"/>
      <path id="Path_4769" data-name="Path 4769" d="M8.167,1.167H61.833A5.833,5.833,0,0,1,67.667,7V46.667A5.833,5.833,0,0,1,61.833,52.5H8.167a5.833,5.833,0,0,1-5.833-5.833V7A5.833,5.833,0,0,1,8.167,1.167Z" fill="#29abe2"/>
      <g id="Group_7114" data-name="Group 7114">
        <path id="Path_4770" data-name="Path 4770" d="M61.833,52.5H8.167a5.833,5.833,0,0,1-5.833-5.833v-3.5H67.667v3.5A5.833,5.833,0,0,1,61.833,52.5Z" fill="#e6e6e6"/>
        <path id="Path_4771" data-name="Path 4771" d="M11.667,64.167H58.333A2.333,2.333,0,0,1,60.667,66.5h0a2.333,2.333,0,0,1-2.333,2.333H11.667A2.333,2.333,0,0,1,9.333,66.5h0A2.333,2.333,0,0,1,11.667,64.167Z" fill="#e6e6e6"/>
      </g>
      <path id="Path_4772" data-name="Path 4772" d="M26.335,43.167l.61-1.877L31.5,39.443V35.117l-4.55-1.846-1.1-3.4,2.6-4.17-2.543-3.5-4.774,1.188-2.89-2.1L17.894,16.4,13.78,15.062l-3.157,3.759H7.049L3.891,15.062l-1.557.506v27.6Z" fill="#fbb03b"/>
      <path id="Path_4773" data-name="Path 4773" d="M16.709,43.167A9.833,9.833,0,0,0,2.333,29.907V43.167Z" fill="#29abe2"/>
      <path id="Path_4774" data-name="Path 4774" d="M31.5,10.5H63v2.333H31.5Z"/>
      <path id="Path_4775" data-name="Path 4775" d="M31.5,15.167H51.333V17.5H31.5Z"/>
      <path id="Path_4776" data-name="Path 4776" d="M31.5,19.833H51.333v2.333H31.5Z"/>
      <path id="Path_4777" data-name="Path 4777" d="M40.833,5.833H63V8.167H40.833Z"/>
      <path id="Path_4778" data-name="Path 4778" d="M36.167,5.833H38.5V8.167H36.167Z"/>
      <path id="Path_4779" data-name="Path 4779" d="M33.833,46.667h2.333V49H33.833Z"/>
      <path id="Path_4780" data-name="Path 4780" d="M17.842,12.491l1.65-1.65L17.983,9.333l1.508-1.509-1.65-1.65L15.508,8.508a1.167,1.167,0,0,0,0,1.65Z"/>
      <path id="Path_4781" data-name="Path 4781" d="M26.492,12.491l2.333-2.333a1.167,1.167,0,0,0,0-1.65L26.492,6.175l-1.65,1.65L26.35,9.333l-1.508,1.509Z"/>
      <path id="Path_4782" data-name="Path 4782" d="M19.892,12.463l2.336-7L24.44,6.2l-2.336,7Z"/>
      <path id="Path_4783" data-name="Path 4783" d="M60.667,26.833H58.333v9.333H56V24.5H53.667V36.167H51.333V30.333H49v5.833H46.667v-7H44.333v7H42V31.5H39.667v4.667H37.333V38.5H63V36.167H60.667Z"/>
      <path id="Path_4784" data-name="Path 4784" d="M1.167,43.167v3.5a7.007,7.007,0,0,0,7,7H22.612L17.946,63H11.667a3.5,3.5,0,0,0,0,7H58.333a3.5,3.5,0,0,0,0-7H52.054l-4.667-9.333H61.833a7.007,7.007,0,0,0,7-7V7a7.007,7.007,0,0,0-7-7H8.167a7.007,7.007,0,0,0-7,7V43.167Zm23.567-12.93,1.1,3.4a1.167,1.167,0,0,0,.671.721l3.824,1.55v2.753l-3.827,1.55a1.16,1.16,0,0,0-.671.722L25.486,42H18.765A10.984,10.984,0,0,0,3.5,27.674V16.415l2.652,3.157a1.167,1.167,0,0,0,.894.417h3.571a1.167,1.167,0,0,0,.894-.417l2.653-3.157,2.618.851.289,4.11a1.167,1.167,0,0,0,.477.862l2.89,2.1a1.173,1.173,0,0,0,.968.188l4.005-1,1.619,2.227-2.183,3.5a1.167,1.167,0,0,0-.114.979ZM3.5,42V30.45A8.666,8.666,0,0,1,16.1,42Zm56,24.5a1.167,1.167,0,0,1-1.167,1.167H11.667a1.167,1.167,0,0,1,0-2.333H58.333A1.167,1.167,0,0,1,59.5,66.5ZM49.446,63H20.554l4.667-9.333H44.779ZM61.833,51.333H8.167A4.667,4.667,0,0,1,3.5,46.667V44.333h63v2.333A4.667,4.667,0,0,1,61.833,51.333Zm-53.667-49H61.833A4.667,4.667,0,0,1,66.5,7V42H28.3l3.641-1.476a1.167,1.167,0,0,0,.728-1.08V35.117a1.167,1.167,0,0,0-.728-1.081l-4.055-1.64-.768-2.362,2.312-3.71a1.167,1.167,0,0,0-.047-1.3l-2.543-3.5a1.167,1.167,0,0,0-1.225-.447l-4.242,1.05-2-1.456-.307-4.352a1.167,1.167,0,0,0-.8-1.028l-4.113-1.337a1.176,1.176,0,0,0-1.254.36l-2.808,3.343H7.593L4.783,14.311a1.176,1.176,0,0,0-1.255-.36l-.028.01V7A4.667,4.667,0,0,1,8.167,2.333Z"/>
    </g>
  </g>
</svg>
