<svg xmlns="http://www.w3.org/2000/svg" xmlns:xlink="http://www.w3.org/1999/xlink" width="70" height="70" viewBox="0 0 70 70">
  <defs>
    <clipPath id="clip-path">
      <rect id="Rectangle_1295" data-name="Rectangle 1295" width="70" height="70" rx="6" transform="translate(1133 2567)" fill="#737373"/>
    </clipPath>
  </defs>
  <g id="Mask_Group_34" data-name="Mask Group 34" transform="translate(-1133 -2567)" clip-path="url(#clip-path)">
    <g id="model" transform="translate(1133 2567)">
      <path id="Path_4812" data-name="Path 4812" d="M53.064,2.258V8.3a6.647,6.647,0,0,0-4.516,0V2.258a1.133,1.133,0,0,1,1.129-1.129h2.258A1.133,1.133,0,0,1,53.064,2.258Zm0,0" fill="#e6e9ed"/>
      <path id="Path_4813" data-name="Path 4813" d="M53.064,14.677a2.258,2.258,0,1,1-2.258-2.258A2.258,2.258,0,0,1,53.064,14.677Zm0,0" fill="#fcd770"/>
      <path id="Path_4814" data-name="Path 4814" d="M57.581,14.677a6.659,6.659,0,0,1-.869,3.308V18a6.821,6.821,0,0,1-4.539,3.319,6.948,6.948,0,0,1-2.732,0A6.821,6.821,0,0,1,44.9,18v-.011a6.659,6.659,0,0,1-.869-3.308A6.753,6.753,0,0,1,48.548,8.3a6.647,6.647,0,0,1,4.516,0,6.753,6.753,0,0,1,4.516,6.379Zm-4.516,0a2.258,2.258,0,1,0-2.258,2.258A2.265,2.265,0,0,0,53.064,14.677Zm0,0" fill="#b4dd7f"/>
      <path id="Path_4815" data-name="Path 4815" d="M62.1,46.29H48.548V59.839H64.355V46.29Zm0-6.819a2.679,2.679,0,0,0,2.258-2.664v-.124a2.667,2.667,0,0,0-.214-1.062l-4.065-9.653h8.8v42.9H10.161V59.839H1.129V25.968H41.537l-1.9,4.516H5.645V55.323H44.032V34.153l2.1-4.979a9,9,0,0,0,9.349,0l3.658,8.682a2.725,2.725,0,0,0,2.507,1.66,1.958,1.958,0,0,0,.451-.045Zm0,0" fill="#e6e9ed"/>
      <path id="Path_4816" data-name="Path 4816" d="M64.355,46.29V59.839H48.548V46.29Zm0,0" fill="#ff826e"/>
      <path id="Path_4817" data-name="Path 4817" d="M64.355,36.683v.124A2.679,2.679,0,0,1,62.1,39.471a1.958,1.958,0,0,1-.451.045,2.725,2.725,0,0,1-2.507-1.66l-3.658-8.682-3.308-7.858A6.821,6.821,0,0,0,56.711,18l3.364,7.971,4.065,9.653a2.667,2.667,0,0,1,.214,1.062Zm0,0" fill="#b4dd7f"/>
      <path id="Path_4818" data-name="Path 4818" d="M52.173,21.316l3.308,7.858a9,9,0,0,1-9.349,0l3.308-7.858a6.948,6.948,0,0,0,2.732,0Zm0,0" fill="#e6e9ed"/>
      <path id="Path_4819" data-name="Path 4819" d="M49.44,21.316l-3.308,7.858-2.1,4.979-1.558,3.7a2.725,2.725,0,0,1-2.507,1.66,1.958,1.958,0,0,1-.452-.045,2.716,2.716,0,0,1-2.258-2.664v-.124a2.667,2.667,0,0,1,.214-1.062l2.168-5.137,1.9-4.516L44.9,18a6.821,6.821,0,0,0,4.539,3.319Zm0,0" fill="#b4dd7f"/>
      <path id="Path_4820" data-name="Path 4820" d="M39.516,39.471a1.958,1.958,0,0,0,.452.045,2.725,2.725,0,0,0,2.507-1.66l1.558-3.7V55.323H23.71V50.806H18.064V44.032H5.645V39.516h6.774A4.51,4.51,0,0,1,16.935,35V30.484h4.516V40.645h11.29V30.484h6.9l-2.168,5.137a2.667,2.667,0,0,0-.214,1.062v.124a2.716,2.716,0,0,0,2.258,2.664Zm0,0" fill="#ffeaa7"/>
      <path id="Path_4821" data-name="Path 4821" d="M39.516,47.419a3.387,3.387,0,1,1-3.387-3.387A3.387,3.387,0,0,1,39.516,47.419Zm0,0" fill="#e6e9ed"/>
      <path id="Path_4822" data-name="Path 4822" d="M32.742,59.839h4.516v4.516H32.742Zm0,0" fill="#fcd770"/>
      <path id="Path_4823" data-name="Path 4823" d="M28.226,59.839h4.516v4.516H28.226Zm0,0" fill="#fcd770"/>
      <path id="Path_4824" data-name="Path 4824" d="M21.452,30.484h11.29V40.645H21.452Zm0,0" fill="#b4dd7f"/>
      <g id="Group_7131" data-name="Group 7131">
        <path id="Path_4825" data-name="Path 4825" d="M32.742,19.194v6.774H21.452V1.129h11.29Zm0,0" fill="#fcd770"/>
        <path id="Path_4826" data-name="Path 4826" d="M23.71,59.839h4.516v4.516H23.71Zm0,0" fill="#fcd770"/>
        <path id="Path_4827" data-name="Path 4827" d="M19.194,59.839H23.71v4.516H19.194Zm0,0" fill="#fcd770"/>
      </g>
      <path id="Path_4828" data-name="Path 4828" d="M23.71,50.806v4.516H5.645V44.032H18.064v6.774Zm0,0" fill="#b4dd7f"/>
      <path id="Path_4829" data-name="Path 4829" d="M14.677,59.839h4.516v4.516H14.677Zm0,0" fill="#fcd770"/>
      <path id="Path_4830" data-name="Path 4830" d="M16.935,30.484V35a4.51,4.51,0,0,0-4.516,4.516H5.645V30.484Zm0,0" fill="#b4dd7f"/>
      <path id="Path_4831" data-name="Path 4831" d="M12.419,10.161h4.516V25.968H12.419Zm0,0" fill="#ff826e"/>
      <path id="Path_4832" data-name="Path 4832" d="M12.419,3.387l4.516,6.774H7.9Zm0,0" fill="#aab2bd"/>
      <path id="Path_4833" data-name="Path 4833" d="M7.9,10.161h4.516V25.968H7.9Zm0,0" fill="#fcd770"/>
      <path id="Path_4834" data-name="Path 4834" d="M10.161,59.839v9.032L1.129,59.839Zm0,0" fill="#ff826e"/>
      <path id="Path_4835" data-name="Path 4835" d="M50.806,18.064a3.387,3.387,0,1,0-3.387-3.387A3.391,3.391,0,0,0,50.806,18.064Zm0-4.516a1.129,1.129,0,1,1-1.129,1.129A1.131,1.131,0,0,1,50.806,13.548Zm0,0"/>
      <path id="Path_4836" data-name="Path 4836" d="M60.827,24.839l-2.87-6.816A7.865,7.865,0,0,0,54.194,7.548V2.258A2.26,2.26,0,0,0,51.935,0H49.677a2.26,2.26,0,0,0-2.258,2.258v5.29a7.865,7.865,0,0,0-3.763,10.475l-2.87,6.816H33.871V0H20.323V24.839H18.065V9.819L12.419,1.351,6.774,9.819v15.02H0V60.306L9.694,70H70V24.839ZM63.1,36.063a1.566,1.566,0,0,1,.124.613V36.8a1.586,1.586,0,0,1-3.046.617L53.7,22.025a7.933,7.933,0,0,0,2.732-1.8Zm.124,11.356V58.71H49.677V47.419ZM50.806,22.581c.224,0,.443-.015.662-.034l2.567,6.1a8,8,0,0,1-6.459,0l2.567-6.1c.22.019.439.034.663.034ZM49.677,2.258h2.258V6.865a7.095,7.095,0,0,0-2.258,0Zm1.129,6.774a5.645,5.645,0,1,1-5.645,5.645A5.652,5.652,0,0,1,50.806,9.032ZM47.914,22.025l-6.48,15.392a1.585,1.585,0,0,1-3.046-.615v-.125a1.577,1.577,0,0,1,.124-.614l6.671-15.841a7.936,7.936,0,0,0,2.732,1.8ZM6.774,45.161H16.935v6.774h5.645v2.258H6.774Zm12.419,4.516V42.9H6.774V40.645h6.774V39.516a3.392,3.392,0,0,1,3.387-3.387h1.129V31.613h2.258V41.774H33.871V31.613h4.064l-1.5,3.572a3.812,3.812,0,0,0-.3,1.491V36.8a3.844,3.844,0,0,0,2.258,3.492v3.238a4.467,4.467,0,0,0-2.258-.628,4.516,4.516,0,1,0,4.516,4.516V40.58A3.821,3.821,0,0,0,42.9,39.286V54.194H24.839V49.677ZM6.774,38.387V31.613h9.032v2.372a5.659,5.659,0,0,0-4.4,4.4Zm15.806-6.774h9.032v7.9H22.581ZM38.387,47.419a2.258,2.258,0,1,1-2.258-2.258A2.26,2.26,0,0,1,38.387,47.419ZM22.581,2.258h9.032V4.516H27.1V6.774h4.516V9.032H29.355V11.29h2.258v2.258H27.1v2.258h4.516v2.258H29.355v2.258h2.258v4.516H22.581ZM13.548,24.839V11.29h2.258V24.839ZM14.826,9.032H10.012l2.407-3.609ZM9.032,11.29H11.29V24.839H9.032Zm0,54.855L3.855,60.968H9.032Zm58.71,1.6H11.29V58.71H2.258V27.1H39.836l-.951,2.258H4.516v27.1H45.161V34.383L46.7,30.732a10.011,10.011,0,0,0,8.215,0L58.1,38.295a3.827,3.827,0,0,0,2.869,2.285v4.582H47.419V60.968H65.484V45.161H63.226V40.293A3.844,3.844,0,0,0,65.484,36.8v-.125a3.812,3.812,0,0,0-.3-1.491L61.777,27.1h5.965Zm0,0"/>
      <path id="Path_4837" data-name="Path 4837" d="M13.548,65.484H38.387V58.71H13.548ZM27.1,63.226H24.839V60.968H27.1Zm2.258-2.258h2.258v2.258H29.355Zm-6.774,2.258H20.323V60.968h2.258Zm13.548,0H33.871V60.968h2.258ZM15.806,60.968h2.258v2.258H15.806Zm0,0"/>
      <path id="Path_4838" data-name="Path 4838" d="M40.645,63.226H65.484v2.258H40.645Zm0,0"/>
    </g>
  </g>
</svg>
