<svg xmlns="http://www.w3.org/2000/svg" xmlns:xlink="http://www.w3.org/1999/xlink" width="70" height="70" viewBox="0 0 70 70">
  <defs>
    <clipPath id="clip-path">
      <rect id="Rectangle_1295" data-name="Rectangle 1295" width="70" height="70" rx="6" transform="translate(718 3013)" fill="#737373"/>
    </clipPath>
  </defs>
  <g id="Mask_Group_32" data-name="Mask Group 32" transform="translate(-718 -3013)" clip-path="url(#clip-path)">
    <g id="lab-tool" transform="translate(715.194 3010.195)">
      <g id="Group_7116" data-name="Group 7116">
        <path id="Path_4785" data-name="Path 4785" d="M61.545,8.974h3.544V69.48H61.545Z" transform="translate(126.634 78.454) rotate(180)" fill="#537980"/>
        <path id="Path_4786" data-name="Path 4786" d="M59.773,64.683h7.089v4.8H59.773Z" transform="translate(126.634 134.163) rotate(180)" fill="#385b60"/>
        <path id="Path_4787" data-name="Path 4787" d="M28.722,35.812V7.842H14.545V35.812a16.983,16.983,0,1,0,14.177,0Z" fill="#eaeaf0"/>
        <path id="Path_4788" data-name="Path 4788" d="M35.07,51.244a13.439,13.439,0,1,1-26.877,0,13.3,13.3,0,0,1,.413-3.3h26.05a13.3,13.3,0,0,1,.413,3.3Z" fill="#9adb07"/>
        <rect id="Rectangle_1659" data-name="Rectangle 1659" width="19.493" height="3.544" rx="1.772" transform="translate(11.887 7.842)" fill="#d8d8d8"/>
        <path id="Path_4789" data-name="Path 4789" d="M3.84,68.227H71.771v3.544H3.84Z" fill="#537980"/>
        <path id="Path_4790" data-name="Path 4790" d="M44.378,3.84V45.553a5.316,5.316,0,1,0,10.633,0V3.84Z" fill="#eaeaf0"/>
        <rect id="Rectangle_1660" data-name="Rectangle 1660" width="3.544" height="15.949" rx="1.772" transform="translate(57.669 3.84) rotate(90)" fill="#d8d8d8"/>
        <path id="Path_4791" data-name="Path 4791" d="M54.272,1.738h3.544V30.387H54.272Z" transform="translate(72.107 -39.982) rotate(90)" fill="#385b60"/>
        <g id="Group_7115" data-name="Group 7115">
          <circle id="Ellipse_33" data-name="Ellipse 33" cx="1.772" cy="1.772" r="1.772" transform="translate(17.211 54.075)" fill="#94c600"/>
          <circle id="Ellipse_34" data-name="Ellipse 34" cx="1.772" cy="1.772" r="1.772" transform="translate(26.951 50.604)" fill="#94c600"/>
          <circle id="Ellipse_35" data-name="Ellipse 35" cx="1.772" cy="1.772" r="1.772" transform="translate(18.984 38.035)" fill="#94c600"/>
        </g>
      </g>
      <g id="Group_7117" data-name="Group 7117">
        <path id="Path_4792" data-name="Path 4792" d="M65.09,36.774a1.034,1.034,0,0,0-1.034,1.031v2.658a1.034,1.034,0,1,0,2.067,0V37.805a1.034,1.034,0,0,0-1.034-1.031Z" fill="#051720"/>
        <path id="Path_4793" data-name="Path 4793" d="M18.09,16.392a1.034,1.034,0,0,0-1.034,1.034v3.889a1.034,1.034,0,0,0,2.067,0V17.426a1.034,1.034,0,0,0-1.034-1.034Z" fill="#051720"/>
        <path id="Path_4794" data-name="Path 4794" d="M7.605,47.692a14.472,14.472,0,1,0,28.053,0,1.033,1.033,0,0,0-1-.778H8.607a1.033,1.033,0,0,0-1,.778Zm1.831,1.29H33.828a12.4,12.4,0,1,1-24.391,0Z" fill="#051720"/>
        <path id="Path_4795" data-name="Path 4795" d="M71.771,67.193H67.895V64.683a1.034,1.034,0,0,0-1.034-1.034h-.737V44.5a1.034,1.034,0,0,0-2.067,0V63.649H62.58V18.868h1.477V33.784a1.034,1.034,0,1,0,2.067,0V18.868h4.245A1.034,1.034,0,0,0,71.4,17.835V14.29a1.034,1.034,0,0,0-1.034-1.034H66.124V8.973A1.034,1.034,0,0,0,65.09,7.939H61.546a1.034,1.034,0,0,0-1.034,1.034v4.284H56.046V8.4a2.8,2.8,0,0,0-.15-5.6h-12.4a2.8,2.8,0,1,0-.145,5.6v4.853H41.719a1.034,1.034,0,0,0-1.034,1.034v3.544a1.034,1.034,0,0,0,1.034,1.034h1.627V45.555a6.35,6.35,0,0,0,12.7,0V18.868h4.466v44.78h-.74a1.034,1.034,0,0,0-1.034,1.034v2.511H50.112a1.034,1.034,0,1,0,0,2.067H70.737v1.477H4.873V69.261H44.38a1.034,1.034,0,1,0,0-2.067H30A18.012,18.012,0,0,0,36.77,41.472a1.034,1.034,0,1,0-1.734,1.122,15.949,15.949,0,1,1-20.061-5.841,1.034,1.034,0,0,0,.6-.939V12.42h12.11v2.348H25.178a1.034,1.034,0,1,0,0,2.067h2.508v1.92H25.178a1.034,1.034,0,1,0,0,2.067h2.508v1.92H25.178a1.034,1.034,0,1,0,0,2.067h2.508v1.92H25.178a1.034,1.034,0,1,0,0,2.067h2.508v1.92H25.178a1.034,1.034,0,0,0,0,2.067h2.508v3.03a1.034,1.034,0,0,0,.6.939,15.852,15.852,0,0,1,3.893,2.535,1.034,1.034,0,0,0,1.37-1.548,17.893,17.893,0,0,0-3.8-2.575V12.4a2.8,2.8,0,1,0-.145-5.6H13.66a2.8,2.8,0,0,0-.15,5.6V35.165a18.008,18.008,0,0,0-.243,32.028H3.84a1.034,1.034,0,0,0-1.034,1.034v3.544A1.034,1.034,0,0,0,3.84,72.8H71.771A1.034,1.034,0,0,0,72.8,71.771V68.227a1.034,1.034,0,0,0-1.034-1.034ZM62.58,10.007h1.477v3.249H62.58ZM42.753,5.612a.74.74,0,0,1,.738-.738H55.9a.738.738,0,1,1,0,1.477h-12.4a.74.74,0,0,1-.738-.738Zm2.658,2.806h8.565v4.839H45.414Zm-2.658,6.907H69.335V16.8H42.753Zm11.223,5.464H51.466a1.034,1.034,0,0,0,0,2.067h2.513v1.92H51.466a1.034,1.034,0,0,0,0,2.067h2.513v1.92H51.466a1.034,1.034,0,0,0,0,2.067h2.513v1.92H51.466a1.034,1.034,0,0,0,0,2.067h2.513v1.92H51.466a1.034,1.034,0,0,0,0,2.067h2.513v6.751a4.283,4.283,0,0,1-8.565,0V18.868h8.565Zm6.827,46.4V65.716h5.021v1.477ZM12.921,9.614a.739.739,0,0,1,.738-.738H29.609a.738.738,0,1,1,0,1.477H13.66A.738.738,0,0,1,12.921,9.614Z" fill="#051720"/>
        <path id="Path_4796" data-name="Path 4796" d="M18.984,58.653a2.806,2.806,0,1,0-2.806-2.806,2.806,2.806,0,0,0,2.806,2.806Zm0-3.544a.738.738,0,1,1-.738.738.738.738,0,0,1,.738-.738Z" fill="#051720"/>
        <path id="Path_4797" data-name="Path 4797" d="M28.723,55.182a2.806,2.806,0,1,0-2.806-2.806A2.806,2.806,0,0,0,28.723,55.182Zm0-3.544a.738.738,0,1,1-.738.738.738.738,0,0,1,.738-.738Z" fill="#051720"/>
        <path id="Path_4798" data-name="Path 4798" d="M17.95,39.807A2.806,2.806,0,1,0,20.756,37a2.806,2.806,0,0,0-2.806,2.806Zm2.806-.738a.738.738,0,1,1-.738.738A.738.738,0,0,1,20.756,39.068Z" fill="#051720"/>
      </g>
    </g>
  </g>
</svg>
