<svg xmlns="http://www.w3.org/2000/svg" xmlns:xlink="http://www.w3.org/1999/xlink" width="70" height="70" viewBox="0 0 70 70">
  <defs>
    <clipPath id="clip-path">
      <rect id="Rectangle_1295" data-name="Rectangle 1295" width="70" height="70" rx="6" transform="translate(303 3013)" fill="#737373"/>
    </clipPath>
  </defs>
  <g id="Mask_Group_33" data-name="Mask Group 33" transform="translate(-303 -3013)" clip-path="url(#clip-path)">
    <g id="pendulum" transform="translate(303 3013)">
      <g id="Group_7118" data-name="Group 7118">
        <circle id="Ellipse_36" data-name="Ellipse 36" cx="5.707" cy="5.707" r="5.707" transform="translate(1.54 51.612)" fill="#9facba"/>
      </g>
      <g id="Group_7119" data-name="Group 7119">
        <circle id="Ellipse_37" data-name="Ellipse 37" cx="5.707" cy="5.707" r="5.707" transform="translate(12.914 51.612)" fill="#9facba"/>
      </g>
      <g id="Group_7120" data-name="Group 7120">
        <circle id="Ellipse_38" data-name="Ellipse 38" cx="5.707" cy="5.707" r="5.707" transform="translate(24.287 51.612)" fill="#9facba"/>
      </g>
      <g id="Group_7121" data-name="Group 7121">
        <circle id="Ellipse_39" data-name="Ellipse 39" cx="5.707" cy="5.707" r="5.707" transform="translate(35.66 51.612)" fill="#9facba"/>
      </g>
      <g id="Group_7122" data-name="Group 7122">
        <path id="Path_4799" data-name="Path 4799" d="M47.074,57.318a5.707,5.707,0,0,1-10.079,3.667,5.707,5.707,0,0,0,6.491-8.968,5.707,5.707,0,0,1,3.588,5.3Z" fill="#8d9ca8"/>
      </g>
      <g id="Group_7123" data-name="Group 7123">
        <path id="Path_4800" data-name="Path 4800" d="M35.7,57.318a5.707,5.707,0,0,1-10.079,3.667,5.707,5.707,0,0,0,6.491-8.968,5.707,5.707,0,0,1,3.588,5.3Z" fill="#8d9ca8"/>
      </g>
      <g id="Group_7124" data-name="Group 7124">
        <path id="Path_4801" data-name="Path 4801" d="M24.327,57.318a5.707,5.707,0,0,1-10.079,3.667,5.707,5.707,0,0,0,6.491-8.968,5.707,5.707,0,0,1,3.588,5.3Z" fill="#8d9ca8"/>
      </g>
      <g id="Group_7125" data-name="Group 7125">
        <path id="Path_4802" data-name="Path 4802" d="M12.954,57.318A5.707,5.707,0,0,1,2.874,60.985a5.707,5.707,0,0,0,6.491-8.968,5.707,5.707,0,0,1,3.588,5.3Z" fill="#8d9ca8"/>
      </g>
      <g id="Group_7126" data-name="Group 7126">
        <circle id="Ellipse_40" data-name="Ellipse 40" cx="5.707" cy="5.707" r="5.707" transform="translate(57.045 49.277)" fill="#9facba"/>
      </g>
      <g id="Group_7127" data-name="Group 7127">
        <path id="Path_4803" data-name="Path 4803" d="M64.506,60.414A5.685,5.685,0,0,1,59.85,59.9a5.707,5.707,0,0,0,3.309-10.607,5.708,5.708,0,0,1,1.347,11.124Z" fill="#8d9ca8"/>
      </g>
      <g id="Group_7128" data-name="Group 7128">
        <path id="Path_4804" data-name="Path 4804" d="M67.662,12.847H2.338a1.316,1.316,0,0,1-1.316-1.316V8.29A1.316,1.316,0,0,1,2.338,6.975H67.662A1.316,1.316,0,0,1,68.977,8.29v3.24A1.316,1.316,0,0,1,67.662,12.847Z" fill="#d77f4a"/>
      </g>
      <g id="Group_7129" data-name="Group 7129">
        <path id="Path_4805" data-name="Path 4805" d="M68.978,8.29v3.241a1.316,1.316,0,0,1-1.316,1.316H64.935a1.316,1.316,0,0,0,1.316-1.316V8.29a1.316,1.316,0,0,0-1.316-1.316h2.727A1.316,1.316,0,0,1,68.978,8.29Z" fill="#c86d36"/>
      </g>
      <g id="Group_7130" data-name="Group 7130">
        <path id="Path_4806" data-name="Path 4806" d="M8.1,60a1.018,1.018,0,0,0,.482-.121,3.316,3.316,0,0,0,1.59-1.925,1.023,1.023,0,1,0-1.953-.607,1.273,1.273,0,0,1-.6.729A1.023,1.023,0,0,0,8.1,60Z"/>
        <path id="Path_4807" data-name="Path 4807" d="M30.846,60a1.018,1.018,0,0,0,.482-.121,3.317,3.317,0,0,0,1.59-1.925,1.023,1.023,0,1,0-1.953-.607,1.273,1.273,0,0,1-.6.729A1.023,1.023,0,0,0,30.846,60Z"/>
        <path id="Path_4808" data-name="Path 4808" d="M67.662,11.824H62.038a1.023,1.023,0,0,0,0,2.045h5.624A2.341,2.341,0,0,0,70,11.531V8.291a2.341,2.341,0,0,0-2.338-2.338H2.338A2.341,2.341,0,0,0,0,8.291v3.24a2.341,2.341,0,0,0,2.338,2.338H6.224v36.8a6.653,6.653,0,0,0-1.875.576,1.022,1.022,0,1,0,.882,1.845,4.639,4.639,0,0,1,2.016-.455,4.732,4.732,0,0,1,4.443,3.2,4.6,4.6,0,0,1-.131,3.31A4.732,4.732,0,0,1,9.69,61.314a4.686,4.686,0,0,1-6.916-5.388A1.023,1.023,0,1,0,.82,55.319a6.728,6.728,0,0,0,12.114,5.59,6.721,6.721,0,0,0,11.373,0,6.721,6.721,0,0,0,11.373,0A6.728,6.728,0,1,0,42.39,50.667v-36.8h6l11.342,35.1a6.73,6.73,0,1,0,1.946-.629L50.541,13.869h6.784a1.023,1.023,0,1,0,0-2.045H2.338a.293.293,0,0,1-.293-.293V8.291A.293.293,0,0,1,2.338,8H67.662a.293.293,0,0,1,.293.293v3.24a.293.293,0,0,1-.293.293ZM62.748,50.3a4.685,4.685,0,1,1-1.437.227,4.693,4.693,0,0,1,1.437-.227Zm-16.7,7.019a4.684,4.684,0,1,1-4.684-4.684A4.689,4.689,0,0,1,46.051,57.318ZM31.016,13.869h9.328v36.8a6.742,6.742,0,0,0-4.664,3.06,6.741,6.741,0,0,0-4.664-3.06v-36.8ZM34.661,56.86a4.624,4.624,0,0,1-.224,1.94,4.684,4.684,0,0,1-9.105-1.024,4.683,4.683,0,0,1,.218-1.938,4.691,4.691,0,0,1,9.111,1.023ZM19.643,13.869h9.328v36.8a6.742,6.742,0,0,0-4.664,3.06,6.741,6.741,0,0,0-4.664-3.06Zm3.633,42.992a4.613,4.613,0,0,1-.21,1.934A4.732,4.732,0,0,1,18.62,62a4.678,4.678,0,0,1-1.9-.4,4.74,4.74,0,0,1-2.765-4.74,4.68,4.68,0,0,1,9.317,0ZM17.6,50.667a6.742,6.742,0,0,0-4.664,3.06,6.741,6.741,0,0,0-4.664-3.06v-36.8H17.6v36.8Z"/>
        <path id="Path_4809" data-name="Path 4809" d="M64.073,57.327a1.02,1.02,0,0,0,.736-.313,3.316,3.316,0,0,0,.921-2.321,1.022,1.022,0,0,0-1.022-1.011H64.7a1.023,1.023,0,0,0-1.011,1.034,1.273,1.273,0,0,1-.349.879,1.023,1.023,0,0,0,.736,1.732Z"/>
        <path id="Path_4810" data-name="Path 4810" d="M42.219,60a1.018,1.018,0,0,0,.482-.121,3.316,3.316,0,0,0,1.59-1.925,1.023,1.023,0,1,0-1.953-.607,1.273,1.273,0,0,1-.6.729A1.023,1.023,0,0,0,42.219,60Z"/>
        <path id="Path_4811" data-name="Path 4811" d="M19.472,60a1.019,1.019,0,0,0,.482-.121,3.316,3.316,0,0,0,1.59-1.925,1.023,1.023,0,1,0-1.953-.607,1.273,1.273,0,0,1-.6.729A1.023,1.023,0,0,0,19.472,60Z"/>
      </g>
    </g>
  </g>
</svg>
