<svg xmlns="http://www.w3.org/2000/svg" xmlns:xlink="http://www.w3.org/1999/xlink" width="70" height="70" viewBox="0 0 70 70">
  <defs>
    <clipPath id="clip-path">
      <rect id="Rectangle_1295" data-name="Rectangle 1295" width="70" height="70" rx="6" transform="translate(1548 3013)" fill="#737373"/>
    </clipPath>
  </defs>
  <g id="Mask_Group_29" data-name="Mask Group 29" transform="translate(-1548 -3013)" clip-path="url(#clip-path)">
    <g id="mobile" transform="translate(1562 3013)">
      <path id="Path_4727" data-name="Path 4727" d="M1.167,10.5H40.833v49H1.167Zm0,0" fill="#78b9eb"/>
      <path id="Path_4728" data-name="Path 4728" d="M40.833,59.5v4.667a4.667,4.667,0,0,1-4.667,4.667H5.833a4.667,4.667,0,0,1-4.667-4.667V59.5Zm0,0" fill="#acabb1"/>
      <path id="Path_4729" data-name="Path 4729" d="M40.833,5.833V10.5H1.167V5.833A4.667,4.667,0,0,1,5.833,1.167H36.167A4.667,4.667,0,0,1,40.833,5.833Zm0,0" fill="#acabb1"/>
      <path id="Path_4730" data-name="Path 4730" d="M40.833,18.667V59.5H1.167V58.333Zm0,0" fill="#5aaae7"/>
      <path id="Path_4731" data-name="Path 4731" d="M36.167,0H5.833A5.84,5.84,0,0,0,0,5.833V64.167A5.84,5.84,0,0,0,5.833,70H36.167A5.84,5.84,0,0,0,42,64.167V5.833A5.84,5.84,0,0,0,36.167,0ZM5.833,2.333H36.167a3.5,3.5,0,0,1,3.5,3.5v3.5H2.333v-3.5A3.5,3.5,0,0,1,5.833,2.333Zm33.833,9.333V58.333H2.333V11.667Zm-3.5,56H5.833a3.5,3.5,0,0,1-3.5-3.5v-3.5H39.667v3.5A3.5,3.5,0,0,1,36.167,67.667Zm0,0"/>
      <path id="Path_4732" data-name="Path 4732" d="M17.5,63h7v2.333h-7Zm0,0"/>
      <path id="Path_4733" data-name="Path 4733" d="M7,4.667H9.333V7H7Zm0,0"/>
      <path id="Path_4734" data-name="Path 4734" d="M11.667,4.667h4.667V7H11.667Zm0,0"/>
      <path id="Path_4735" data-name="Path 4735" d="M10.5,25.667h2.333V28H10.5Zm0,0"/>
      <path id="Path_4736" data-name="Path 4736" d="M15.167,25.667h7V28h-7Zm0,0"/>
      <path id="Path_4737" data-name="Path 4737" d="M12.833,30.333H17.5v2.333H12.833Zm0,0"/>
      <path id="Path_4738" data-name="Path 4738" d="M19.833,30.333H24.5v2.333H19.833Zm0,0"/>
      <path id="Path_4739" data-name="Path 4739" d="M15.167,35h14v2.333h-14Zm0,0"/>
      <path id="Path_4740" data-name="Path 4740" d="M12.833,39.667h7V42h-7Zm0,0"/>
      <path id="Path_4741" data-name="Path 4741" d="M22.167,39.667h4.667V42H22.167Zm0,0"/>
      <path id="Path_4742" data-name="Path 4742" d="M17.5,44.333h2.333v2.333H17.5Zm0,0"/>
      <path id="Path_4743" data-name="Path 4743" d="M22.167,44.333H31.5v2.333H22.167Zm0,0"/>
      <path id="Path_4744" data-name="Path 4744" d="M16.333,49H28v2.333H16.333Zm0,0"/>
      <path id="Path_4745" data-name="Path 4745" d="M7.342,19.492l2.333,2.333,1.65-1.65L9.816,18.667l1.508-1.508-1.65-1.65L7.342,17.842a1.167,1.167,0,0,0,0,1.65Zm0,0"/>
      <path id="Path_4746" data-name="Path 4746" d="M17.158,21.825l2.333-2.333a1.167,1.167,0,0,0,0-1.65l-2.333-2.333-1.65,1.65,1.508,1.508-1.508,1.508Zm0,0"/>
    </g>
  </g>
</svg>
