<svg xmlns="http://www.w3.org/2000/svg" xmlns:xlink="http://www.w3.org/1999/xlink" width="70" height="70" viewBox="0 0 70 70">
  <defs>
    <clipPath id="clip-path">
      <rect id="Rectangle_1295" data-name="Rectangle 1295" width="70" height="70" rx="6" transform="translate(1133 3013)" fill="#737373"/>
    </clipPath>
  </defs>
  <g id="Mask_Group_28" data-name="Mask Group 28" transform="translate(-1133 -3013)" clip-path="url(#clip-path)">
    <g id="chip" transform="translate(1133 3013)">
      <path id="Path_4721" data-name="Path 4721" d="M47.055,51.439H22.944a4.384,4.384,0,0,1-4.384-4.384V22.945a4.384,4.384,0,0,1,4.384-4.384H47.055a4.384,4.384,0,0,1,4.384,4.384V47.056A4.384,4.384,0,0,1,47.055,51.439Z" fill="#4bd7c8"/>
      <path id="Path_4722" data-name="Path 4722" d="M47.055,48.151H22.944a1.1,1.1,0,0,1-1.1-1.1V22.945a1.1,1.1,0,0,1,1.1-1.1H47.055a1.1,1.1,0,0,1,1.1,1.1V47.056A1.1,1.1,0,0,1,47.055,48.151Z" fill="#99e9df"/>
      <g id="Group_7106" data-name="Group 7106">
        <circle id="Ellipse_25" data-name="Ellipse 25" cx="2.192" cy="2.192" r="2.192" transform="translate(3.218 24.041)" fill="#4bd7c8"/>
        <circle id="Ellipse_26" data-name="Ellipse 26" cx="2.192" cy="2.192" r="2.192" transform="translate(62.4 41.576)" fill="#4bd7c8"/>
      </g>
      <g id="Group_7107" data-name="Group 7107">
        <circle id="Ellipse_27" data-name="Ellipse 27" cx="2.192" cy="2.192" r="2.192" transform="translate(1.026 51.439)" fill="#99e9df"/>
        <circle id="Ellipse_28" data-name="Ellipse 28" cx="2.192" cy="2.192" r="2.192" transform="translate(64.591 14.178)" fill="#99e9df"/>
      </g>
      <g id="Group_7108" data-name="Group 7108">
        <circle id="Ellipse_29" data-name="Ellipse 29" cx="2.192" cy="2.192" r="2.192" transform="translate(41.576 3.218)" fill="#4bd7c8"/>
        <circle id="Ellipse_30" data-name="Ellipse 30" cx="2.192" cy="2.192" r="2.192" transform="translate(24.041 62.4)" fill="#4bd7c8"/>
      </g>
      <g id="Group_7109" data-name="Group 7109">
        <circle id="Ellipse_31" data-name="Ellipse 31" cx="2.192" cy="2.192" r="2.192" transform="translate(14.178 1.026)" fill="#99e9df"/>
        <circle id="Ellipse_32" data-name="Ellipse 32" cx="2.192" cy="2.192" r="2.192" transform="translate(51.439 64.591)" fill="#99e9df"/>
      </g>
      <path id="Path_4723" data-name="Path 4723" d="M35,44.331a1.1,1.1,0,0,1,.818.366A3.852,3.852,0,0,0,38.7,45.959,3.549,3.549,0,0,0,42.366,42.9a1.1,1.1,0,0,1,.54-.858,3.8,3.8,0,0,0,1.958-3.209,3.58,3.58,0,0,0-1.08-2.517,1.1,1.1,0,0,1,0-1.542,3.58,3.58,0,0,0,1.08-2.517,3.9,3.9,0,0,0-3.006-3.63,1.1,1.1,0,0,1-.765-1.3,2.441,2.441,0,0,0,.073-.55,2.93,2.93,0,0,0-3.082-2.74,3.261,3.261,0,0,0-2.305.926,1.129,1.129,0,0,1-1.554,0,3.261,3.261,0,0,0-2.305-.926,2.93,2.93,0,0,0-3.082,2.74,2.545,2.545,0,0,0,.059.54,1.1,1.1,0,0,1-.767,1.289,3.9,3.9,0,0,0-2.99,3.651,3.481,3.481,0,0,0,.829,2.226,1.1,1.1,0,0,1,.027,1.359,4.041,4.041,0,0,0-.856,2.443,4.266,4.266,0,0,0,1.982,3.506,1.1,1.1,0,0,1,.488.9A3.522,3.522,0,0,0,31.3,45.959,3.852,3.852,0,0,0,34.182,44.7,1.1,1.1,0,0,1,35,44.331Z" fill="#ccf4ef"/>
      <path id="Path_4724" data-name="Path 4724" d="M68.974,33.975H52.465V31.642h4.454a1.025,1.025,0,1,0,0-2.051H52.465V27.258h3.093a4.285,4.285,0,0,0,3.05-1.263l6.744-6.744A3.215,3.215,0,1,0,63.9,17.8l-6.744,6.744a2.248,2.248,0,0,1-1.6.663H52.464V22.945a5.415,5.415,0,0,0-5.409-5.409H44.793V8.458a3.217,3.217,0,1,0-2.051,0v9.077H40.409V13.081a1.025,1.025,0,0,0-2.051,0v4.454H36.025V1.026a1.025,1.025,0,0,0-2.051,0v16.51H31.642V13.081a1.025,1.025,0,0,0-2.051,0v4.454H27.258V14.443a4.285,4.285,0,0,0-1.263-3.05L19.248,4.647A3.219,3.219,0,1,0,17.8,6.1l6.746,6.746a2.247,2.247,0,0,1,.663,1.6v3.092H22.945a5.432,5.432,0,0,0-1.352.17,1.025,1.025,0,1,0,.511,1.986,3.377,3.377,0,0,1,.841-.106H47.055a3.362,3.362,0,0,1,3.358,3.358V47.055a3.378,3.378,0,0,1-.106.84,1.025,1.025,0,1,0,1.986.511,5.427,5.427,0,0,0,.17-1.351V44.793h9.077a3.217,3.217,0,1,0,0-2.051H52.464V40.409h4.454a1.025,1.025,0,0,0,0-2.051H52.464V36.025h16.51a1.025,1.025,0,0,0,0-2.051ZM65.958,15.544a1.166,1.166,0,1,1,0,1.65h0a1.166,1.166,0,0,1,0-1.65Zm-22.19-11.3A1.166,1.166,0,1,1,42.6,5.409,1.168,1.168,0,0,1,43.767,4.243Zm-28.224-.2a1.167,1.167,0,1,1,1.65,0h0A1.168,1.168,0,0,1,15.544,4.042ZM64.591,42.6a1.166,1.166,0,1,1-1.166,1.166A1.168,1.168,0,0,1,64.591,42.6Z"/>
      <path id="Path_4725" data-name="Path 4725" d="M52.2,63.9l-6.746-6.746a2.247,2.247,0,0,1-.663-1.6V52.465h2.262a5.429,5.429,0,0,0,1.352-.17,1.025,1.025,0,0,0-.511-1.986,3.375,3.375,0,0,1-.84.106H22.944a3.362,3.362,0,0,1-3.358-3.358V22.945a3.373,3.373,0,0,1,.106-.84,1.025,1.025,0,0,0-1.986-.511,5.421,5.421,0,0,0-.17,1.352v2.262H8.458a3.217,3.217,0,1,0,0,2.051h9.077v2.333H13.081a1.025,1.025,0,0,0,0,2.051h4.454v2.333H1.025a1.025,1.025,0,0,0,0,2.051h16.51v2.333H13.081a1.025,1.025,0,1,0,0,2.051h4.454v2.333H14.443a4.285,4.285,0,0,0-3.05,1.263L4.649,50.749A3.215,3.215,0,1,0,6.1,52.2l6.744-6.744a2.248,2.248,0,0,1,1.6-.663h3.093v2.262a5.415,5.415,0,0,0,5.409,5.409h2.262v9.077a3.217,3.217,0,1,0,2.051,0V52.464h2.333v4.454a1.025,1.025,0,0,0,2.051,0V52.464h2.333v16.51a1.025,1.025,0,0,0,2.051,0V52.465h2.333v4.454a1.025,1.025,0,0,0,2.051,0V52.465h2.333v3.092a4.285,4.285,0,0,0,1.263,3.05l6.746,6.746A3.217,3.217,0,1,0,52.2,63.9ZM5.409,27.4a1.166,1.166,0,1,1,1.166-1.166A1.168,1.168,0,0,1,5.409,27.4ZM4.042,54.456a1.166,1.166,0,1,1,0-1.65h0a1.166,1.166,0,0,1,0,1.65Zm22.19,11.3A1.166,1.166,0,1,1,27.4,64.591,1.168,1.168,0,0,1,26.232,65.757Zm28.224,1.85a1.166,1.166,0,1,1,0-1.65A1.168,1.168,0,0,1,54.456,67.607Z"/>
      <path id="Path_4726" data-name="Path 4726" d="M26.577,42.669v0A4.538,4.538,0,0,0,31.3,46.985,4.892,4.892,0,0,0,35,45.35a4.892,4.892,0,0,0,3.7,1.635,4.569,4.569,0,0,0,4.714-4.047,4.793,4.793,0,0,0,2.476-4.1,4.622,4.622,0,0,0-1.426-3.288,4.623,4.623,0,0,0,1.426-3.288,4.953,4.953,0,0,0-3.8-4.654,3.5,3.5,0,0,0,.1-.826,3.952,3.952,0,0,0-4.108-3.765A4.265,4.265,0,0,0,35,24.3a4.266,4.266,0,0,0-3.082-1.28,3.952,3.952,0,0,0-4.108,3.765,3.5,3.5,0,0,0,.1.826,4.953,4.953,0,0,0-3.8,4.654,4.5,4.5,0,0,0,1.08,2.918,5.07,5.07,0,0,0-1.08,3.11A5.281,5.281,0,0,0,26.577,42.669ZM29.426,29.45l.027,0a1.025,1.025,0,0,0,.87-1.565c-.008-.013-.015-.025-.023-.038l-.014-.018c-.016-.022-.032-.044-.05-.065l0,0a1.522,1.522,0,0,1-.375-.983,2.091,2.091,0,0,1,4.114,0,1.025,1.025,0,0,0,2.051,0,2.091,2.091,0,0,1,4.114,0,1.442,1.442,0,0,1-.154.645,5.694,5.694,0,0,0-1.683.422,1.025,1.025,0,1,0,.8,1.89,3.7,3.7,0,0,1,1.417-.287h.029l.027,0a3.078,3.078,0,0,1,3.264,2.81,2.736,2.736,0,0,1-1.578,2.381,1.025,1.025,0,0,0,0,1.814,2.736,2.736,0,0,1,1.578,2.381,2.623,2.623,0,0,1-.9,1.928,4.6,4.6,0,0,0-2.7-2.171,1.025,1.025,0,0,0-.615,1.956,2.326,2.326,0,0,1,1.748,2.123,2.711,2.711,0,0,1-5.347,0V36.1A2.5,2.5,0,0,1,38.7,33.834a1.025,1.025,0,0,0,0-2.051,5.013,5.013,0,0,0-2.673.76v-1.31a1.025,1.025,0,1,0-2.051,0v5.693a4.884,4.884,0,0,0-1.133-.524,1.025,1.025,0,0,0-.615,1.956,2.326,2.326,0,0,1,1.748,2.122v2.192A2.5,2.5,0,0,1,31.3,44.934a2.5,2.5,0,0,1-2.674-2.263,2.067,2.067,0,0,1,.638-1.464,1.025,1.025,0,0,0-1.446-1.455,4.361,4.361,0,0,0-.633.795,3.128,3.128,0,0,1-1.026-2.261,3.492,3.492,0,0,1,2.9-3.246,1.025,1.025,0,1,0-.459-2,6.246,6.246,0,0,0-1.881.766,2.474,2.474,0,0,1-.56-1.55A3.078,3.078,0,0,1,29.426,29.45Z"/>
    </g>
  </g>
</svg>
