<svg id="live-streaming" xmlns="http://www.w3.org/2000/svg" width="61.039" height="19.194" viewBox="0 0 61.039 19.194">
  <path id="Path_4494" data-name="Path 4494" d="M31.35,239.262H3.524A3.529,3.529,0,0,0,0,242.787v12.144a3.529,3.529,0,0,0,3.525,3.525H31.35a3.529,3.529,0,0,0,3.525-3.525V242.787A3.529,3.529,0,0,0,31.35,239.262Zm1.414,15.669a1.415,1.415,0,0,1-1.414,1.414H3.524a1.415,1.415,0,0,1-1.414-1.414V242.787a1.415,1.415,0,0,1,1.414-1.414H31.35a1.415,1.415,0,0,1,1.414,1.414Zm0,0" transform="translate(26.164 -239.262)" fill="#fff"/>
  <path id="Path_4498" data-name="Path 4498" d="M65.07,307.92H62.237v-7.579a1.056,1.056,0,0,0-2.111,0v8.634a1.056,1.056,0,0,0,1.056,1.056H65.07a1.056,1.056,0,0,0,0-2.111Zm0,0" transform="translate(-29.731 -295.043)" fill="#fff"/>
  <path id="Path_4499" data-name="Path 4499" d="M162.919,299.285a1.056,1.056,0,0,0-1.056,1.056v8.634a1.056,1.056,0,0,0,2.111,0v-8.634A1.056,1.056,0,0,0,162.919,299.285Zm0,0" transform="translate(-124.309 -295.042)" fill="#fff"/>
  <path id="Path_4500" data-name="Path 4500" d="M221.2,299.327a1.056,1.056,0,0,0-1.316.705l-1.6,5.287-1.6-5.287a1.056,1.056,0,1,0-2.021.61l2.607,8.634v0a1.073,1.073,0,0,0,2.019,0v0l2.607-8.634a1.056,1.056,0,0,0-.706-1.316Zm0,0" transform="translate(-173.355 -295.039)" fill="#fff"/>
  <path id="Path_4501" data-name="Path 4501" d="M343.6,301.4a1.056,1.056,0,0,0,0-2.111h-4.762a1.056,1.056,0,0,0-1.056,1.056v8.634a1.056,1.056,0,0,0,1.056,1.056h4.62a1.056,1.056,0,0,0,0-2.111h-3.564v-2.75h3a1.056,1.056,0,0,0,0-2.111h-3V301.4Zm0,0" transform="translate(-287.847 -295.042)" fill="#fff"/>
  <g id="Group_6875" data-name="Group 6875" transform="translate(0 1.548)">
    <path id="Path_4495" data-name="Path 4495" d="M204.546,74.238a3.271,3.271,0,1,0-2.316-.956,3.268,3.268,0,0,0,2.316.956Zm-.825-4.091a1.169,1.169,0,0,1,1.649,0,1.158,1.158,0,0,1,0,1.641,1.17,1.17,0,0,1-1.65,0,1.159,1.159,0,0,1,0-1.641Zm0,0" transform="translate(-193.596 -62.933)" fill="#fff"/>
    <path id="Path_4496" data-name="Path 4496" d="M298.564,53.71a1.056,1.056,0,0,0,1.493,0,6.522,6.522,0,0,0,0-9.236,1.056,1.056,0,1,0-1.491,1.494,4.411,4.411,0,0,1,0,6.247,1.055,1.055,0,0,0,0,1.493Zm0,0" transform="translate(-283.757 -41.059)" fill="#fff"/>
    <path id="Path_4497" data-name="Path 4497" d="M146.409,53.708a1.056,1.056,0,0,0,1.491-1.494,4.411,4.411,0,0,1,0-6.247,1.056,1.056,0,0,0-1.491-1.494,6.522,6.522,0,0,0,0,9.236Zm0,0" transform="translate(-140.815 -41.056)" fill="#fff"/>
    <path id="Path_4502" data-name="Path 4502" d="M335.081,8.038A8.747,8.747,0,0,1,332.5,14.27a1.056,1.056,0,1,0,1.491,1.494,10.911,10.911,0,0,0,0-15.452A1.056,1.056,0,1,0,332.5,1.807a8.746,8.746,0,0,1,2.586,6.231Zm0,0" transform="translate(-315.299 -0.004)" fill="#fff"/>
    <path id="Path_4503" data-name="Path 4503" d="M96.187,16.069a1.055,1.055,0,0,0,.746-1.8,8.8,8.8,0,0,1,0-12.463A1.056,1.056,0,0,0,95.441.308a10.912,10.912,0,0,0,0,15.452,1.053,1.053,0,0,0,.746.308Zm0,0" transform="translate(-92.235 0)" fill="#fff"/>
  </g>
</svg>
