<svg xmlns="http://www.w3.org/2000/svg" xmlns:xlink="http://www.w3.org/1999/xlink" width="70" height="70" viewBox="0 0 70 70">
  <defs>
    <clipPath id="clip-path">
      <rect id="Rectangle_1295" data-name="Rectangle 1295" width="70" height="70" rx="6" transform="translate(1548 2567)" fill="#737373"/>
    </clipPath>
  </defs>
  <g id="Mask_Group_27" data-name="Mask Group 27" transform="translate(-1548 -2567)" clip-path="url(#clip-path)">
    <g id="vector" transform="translate(1548 2567)">
      <g id="_x3C_Group_x3E__35_">
        <g id="Group_7104" data-name="Group 7104">
          <path id="Path_4699" data-name="Path 4699" d="M7.077,6.536,2.574,6.5,2.54,2.417,3.76,1.025H7.314A.684.684,0,0,1,8,1.709V5.264Z" fill="#fff0af"/>
          <path id="Path_4700" data-name="Path 4700" d="M67.717,6.682l-4,.023.046-4.584.976-1.1h3.555a.684.684,0,0,1,.684.684V5.264Z" fill="#fff0af"/>
          <path id="Path_4701" data-name="Path 4701" d="M4.443,5.264A.684.684,0,0,1,3.76,4.58V1.025H1.709a.684.684,0,0,0-.684.684V7.314A.684.684,0,0,0,1.709,8H7.314A.684.684,0,0,0,8,7.314V5.264Z" fill="#ffe07d"/>
          <path id="Path_4702" data-name="Path 4702" d="M65.42,5.264a.684.684,0,0,1-.684-.684V1.025H62.686A.684.684,0,0,0,62,1.709V7.314A.684.684,0,0,0,62.686,8h5.605a.684.684,0,0,0,.684-.684V5.264Z" fill="#ffe07d"/>
          <path id="Path_4703" data-name="Path 4703" d="M38.486,4.512a3.489,3.489,0,0,0-4.5-3.337A3.371,3.371,0,0,0,31.65,4.512,3.258,3.258,0,0,0,35,7.861a3.371,3.371,0,0,0,3.33-2.313A3.486,3.486,0,0,0,38.486,4.512Z" fill="#fff0af"/>
          <path id="Path_4704" data-name="Path 4704" d="M37.324,5.674a3.487,3.487,0,0,1-3.336-4.5,3.487,3.487,0,1,0,4.349,4.349A3.48,3.48,0,0,1,37.324,5.674Z" fill="#ffe07d"/>
          <path id="Path_4705" data-name="Path 4705" d="M68.975,35a3.489,3.489,0,0,0-4.5-3.337A3.371,3.371,0,0,0,62.139,35a3.258,3.258,0,0,0,3.35,3.35,3.371,3.371,0,0,0,3.337-2.337A3.486,3.486,0,0,0,68.975,35Z" fill="#fff0af"/>
          <path id="Path_4706" data-name="Path 4706" d="M8,35a3.489,3.489,0,0,0-4.5-3.337A3.371,3.371,0,0,0,1.162,35a3.258,3.258,0,0,0,3.35,3.35,3.371,3.371,0,0,0,3.337-2.337A3.486,3.486,0,0,0,8,35Z" fill="#fff0af"/>
          <g id="Group_7103" data-name="Group 7103">
            <path id="Path_4707" data-name="Path 4707" d="M67.813,36.162a3.487,3.487,0,0,1-3.336-4.5,3.487,3.487,0,1,0,4.349,4.349A3.48,3.48,0,0,1,67.813,36.162Z" fill="#ffe07d"/>
            <path id="Path_4708" data-name="Path 4708" d="M6.836,36.162a3.487,3.487,0,0,1-3.336-4.5,3.487,3.487,0,1,0,4.349,4.349A3.48,3.48,0,0,1,6.836,36.162Z" fill="#ffe07d"/>
          </g>
        </g>
        <path id="Path_4709" data-name="Path 4709" d="M45.938,60.4,35,59.034l-8.2,1.025L25.43,60.4v7.135L44.69,67.5l1.248-.3V65.713L44.57,64.688l1.367-1.025Z" fill="#a3847e"/>
        <path id="Path_4710" data-name="Path 4710" d="M26.523,66.924a.41.41,0,0,1-.41-.41V60.059l-2.051.342v3.261l1.367,1.025-1.367,1.025v1.894a1.367,1.367,0,0,0,1.367,1.367H44.57a1.367,1.367,0,0,0,1.367-1.367v-.684Z" fill="#8e746e"/>
        <path id="Path_4711" data-name="Path 4711" d="M48.24,36.486,36.281,14.459,35,14.311,23.379,36.361a1.365,1.365,0,0,0,.191,1.574c1.713,1.867,5.934,8.622,5.934,15.5l0,1.433,11.312-.177,1.118-1.809v-.609c0-6.877,4.4-12.347,6.116-14.214A1.365,1.365,0,0,0,48.24,36.486ZM35,41.563a4.07,4.07,0,0,1-1.026-8.009c.328-.085.671-1.5,1.025-1.5s.7,1.412,1.025,1.5A4.07,4.07,0,0,1,35,41.563Z" fill="#e3e0e4"/>
        <path id="Path_4712" data-name="Path 4712" d="M31.414,52.882a.609.609,0,0,1-.609-.609c0-7.4-4.687-13.37-5.939-14.835a.683.683,0,0,1-.085-.762L36.367,14.618,35,12.1,21.76,36.485a1.365,1.365,0,0,0,.191,1.574c1.713,1.867,6.12,7.337,6.12,14.214v3.343L35,56.983l6.933-1.367V52.882Z" fill="#d4cfd5"/>
        <path id="Path_4713" data-name="Path 4713" d="M46.447,59.034H23.873v-2.3l.736-1.122H46.074a1.777,1.777,0,0,1,1.777,1.777v.547Z" fill="#e3e0e4"/>
        <path id="Path_4714" data-name="Path 4714" d="M25.293,57.94a.684.684,0,0,1-.684-.684V55.616h-.684a1.777,1.777,0,0,0-1.777,1.777v1.23A1.777,1.777,0,0,0,23.926,60.4H46.074a1.777,1.777,0,0,0,1.777-1.777V57.94Z" fill="#d4cfd5"/>
        <path id="Path_4715" data-name="Path 4715" d="M37.051,14.15a2.049,2.049,0,0,1-.088.6A1.937,1.937,0,0,1,35,16.064a1.825,1.825,0,0,1-1.914-1.914,1.938,1.938,0,0,1,1.3-1.959,2.053,2.053,0,0,1,2.661,1.959Z" fill="#e3e0e4"/>
        <path id="Path_4716" data-name="Path 4716" d="M36.367,14.834A2.05,2.05,0,0,1,34.4,12.188a2.051,2.051,0,1,0,2.557,2.557A2.046,2.046,0,0,1,36.367,14.834Z" fill="#d4cfd5"/>
      </g>
      <g id="Group_7105" data-name="Group 7105">
        <path id="Path_4717" data-name="Path 4717" d="M1.709,9.023H7.314A1.711,1.711,0,0,0,9.023,7.314V5.537h5.844a1.025,1.025,0,0,0,0-2.051H9.023V1.709A1.711,1.711,0,0,0,7.314,0H1.709A1.711,1.711,0,0,0,0,1.709V7.314A1.711,1.711,0,0,0,1.709,9.023Zm.342-6.973H6.973V6.973H2.051Z"/>
        <path id="Path_4718" data-name="Path 4718" d="M68.291,0H62.686a1.711,1.711,0,0,0-1.709,1.709V3.486H39.393a4.511,4.511,0,0,0-8.786,0H19.638a1.025,1.025,0,0,0,0,2.051h4.183A31.514,31.514,0,0,0,3.8,30.545a4.51,4.51,0,1,0,2.051.147A29.676,29.676,0,0,1,30.691,5.852a4.512,4.512,0,0,0,8.617,0,29.191,29.191,0,0,1,15.723,7.544,1.09,1.09,0,0,0,1.449-.054,1.025,1.025,0,0,0-.054-1.449,31.372,31.372,0,0,0-10.2-6.354H60.977V7.315a1.711,1.711,0,0,0,1.709,1.709h5.605A1.711,1.711,0,0,0,70,7.315V1.709A1.711,1.711,0,0,0,68.291,0ZM6.973,35a2.461,2.461,0,1,1-2.461-2.461A2.464,2.464,0,0,1,6.973,35ZM35,6.973a2.461,2.461,0,1,1,2.461-2.461A2.464,2.464,0,0,1,35,6.973Zm32.949,0H63.027V2.051h4.922Z"/>
        <path id="Path_4719" data-name="Path 4719" d="M66.2,30.545a31.4,31.4,0,0,0-6.42-15.017A1.025,1.025,0,0,0,58.168,16.8a29.348,29.348,0,0,1,5.982,13.9,4.512,4.512,0,1,0,2.05-.146Zm-.712,6.916A2.461,2.461,0,1,1,67.949,35,2.464,2.464,0,0,1,65.488,37.461Z"/>
        <path id="Path_4720" data-name="Path 4720" d="M48.8,38.752A2.391,2.391,0,0,0,49.141,36L37.874,15.245a3.076,3.076,0,1,0-5.749,0L20.859,36a2.391,2.391,0,0,0,.337,2.756,25.183,25.183,0,0,1,3.679,5.256,1.06,1.06,0,0,0,1.383.437,1.025,1.025,0,0,0,.437-1.383,27.293,27.293,0,0,0-3.988-5.7.339.339,0,0,1-.046-.391l10.913-20.1a3.058,3.058,0,0,0,.4.175V32.5a5.095,5.095,0,1,0,2.051,0V17.05a3.068,3.068,0,0,0,.4-.175l10.913,20.1a.339.339,0,0,1-.046.391c-1.92,2.094-6.385,7.737-6.385,14.907v2.318h-2.1a1.025,1.025,0,0,0,0,2.051h7.266a.753.753,0,0,1,.752.752v1.23a.753.753,0,0,1-.752.752H23.926a.753.753,0,0,1-.752-.752v-1.23a.753.753,0,0,1,.752-.752H34.069a1.025,1.025,0,0,0,0-2.051H29.1V52.273a18.222,18.222,0,0,0-.593-4.555,1.025,1.025,0,1,0-1.986.513,16.171,16.171,0,0,1,.528,4.042v2.318h-3.12a2.806,2.806,0,0,0-2.8,2.8v1.23a2.806,2.806,0,0,0,1.914,2.656v6.327A2.4,2.4,0,0,0,25.43,70H44.57a2.4,2.4,0,0,0,2.393-2.393V61.28a2.806,2.806,0,0,0,1.914-2.656v-1.23a2.806,2.806,0,0,0-2.8-2.8H42.959V52.273C42.959,45.823,47.047,40.669,48.8,38.752ZM35,13.125a1.025,1.025,0,1,1-1.025,1.025A1.026,1.026,0,0,1,35,13.125Zm3.044,24.368A3.044,3.044,0,1,1,35,34.449,3.048,3.048,0,0,1,38.044,37.493ZM44.57,67.949H25.43a.342.342,0,0,1-.342-.342V65.713h8.431a1.025,1.025,0,0,0,0-2.051H25.088V61.427H44.912v2.236h-2.84a1.025,1.025,0,0,0,0,2.051h2.84v1.894A.342.342,0,0,1,44.57,67.949Z"/>
      </g>
    </g>
  </g>
</svg>
